# xmcd
#
# Track frame offsets:
#	150
#	10447
#	24420
#	38740
#	51445
#	66827
#	83972
#	99262
#	111072
#	125172
#	141710
#	157957
#	171492
#
# Disc length: 2436 seconds
#
# Revision: 1
# Processed by: cddbd v1.5.2PL0 Copyright (c) Steve Scherf et al.
# Submitted via: audiograbber 1.82.02
#
DISCID=b609820d
DTITLE=Red Steagall - Here We Go Again
DYEAR=2007
DGENRE=Country
TTITLE0=Lonestar Beer And Bob Wills Music
TTITLE1=I Left The Best Part Of Texas In Tennessee
TTITLE2=Here We Go Again
TTITLE3=Somewhere My Love
TTITLE4=Party Dolls And Wine
TTITLE5=Freckles Brown
TTITLE6=Early Morning Kind Of Love
TTITLE7=Three Chord Country Song
TTITLE8=The Fiddle Man
TTITLE9=Dawson Le Gate
TTITLE10=Bob's Got A Swing Band In Heaven
TTITLE11=No Way No How
TTITLE12=Truck Drivin' Man
EXTD=
EXTT0=With Toby Keith
EXTT1=
EXTT2=
EXTT3=
EXTT4=
EXTT5=
EXTT6=
EXTT7=
EXTT8=
EXTT9=
EXTT10=
EXTT11=
EXTT12=
PLAYORDER=
